<?xml version="1.0" encoding="utf-8"?>
<!-- Generator: Adobe Illustrator 19.2.1, SVG Export Plug-In . SVG Version: 6.00 Build 0)  -->
<svg version="1.1" id="Layer_1" xmlns="http://www.w3.org/2000/svg" xmlns:xlink="http://www.w3.org/1999/xlink" x="0px" y="0px"
	 viewBox="0 0 100 100" style="enable-background:new 0 0 100 100;" xml:space="preserve">
<style type="text/css">
	.st0{fill:#FFFFFF;}
</style>
<g>
	<g>
		<path class="st0" d="M81.2,73V27.8H18.4V73h22.4l1.6,10.9h14.3L58.3,73H81.2z M20.6,70.8V30H79v40.9H58.6l0.6-4.2h9V38.7H31.4
			v27.9h8.4l0.6,4.2H20.6z M48.6,81.8h-4.3L43,73h5.6V81.8z M48.6,70.8h-5.9L42,66.6h6.6V70.8z M54.8,81.8h-4.1V73h5.3L54.8,81.8z
			 M56.4,70.8h-5.7v-4.2H57L56.4,70.8z M57.3,64.4h-6.6v-3.8h-2.2v3.8h-6.9l-0.6-3.9l-2.2,0.3l0.5,3.6h-5.9V40.9H66v23.5h-6.5
			l0.5-3.6l-2.2-0.3L57.3,64.4z"/>
	</g>
	<g>
		<rect x="36.8" y="54.8" class="st0" width="25.8" height="2.2"/>
	</g>
</g>
<g>
	<path class="st0" d="M50,100c-0.5,0-0.9,0-1.4,0c-13.4-0.4-25.8-5.9-34.9-15.6C4.5,74.7-0.3,62,0,48.6c0.4-13.3,5.9-25.8,15.6-34.9
		C25.3,4.5,38-0.3,51.4,0c13.4,0.4,25.8,5.9,34.9,15.6c9.2,9.7,14,22.4,13.7,35.7c-0.4,13.3-5.9,25.8-15.6,34.9
		C75,95.2,62.9,100,50,100z M50,2.2c-12.3,0-23.9,4.6-32.8,13.1C7.9,24.1,2.6,35.9,2.2,48.7C1.9,61.4,6.5,73.6,15.3,82.9
		c8.8,9.3,20.6,14.6,33.4,14.9c12.7,0.4,24.9-4.3,34.2-13.1c9.3-8.8,14.6-20.6,14.9-33.4l0,0c0.4-12.8-4.3-24.9-13.1-34.2
		C75.9,7.9,64.1,2.6,51.3,2.2C50.9,2.2,50.4,2.2,50,2.2z"/>
</g>
</svg>
